<svg width="151" height="40" viewBox="0 0 151 40" fill="none" xmlns="http://www.w3.org/2000/svg">
    <g clip-path="url(#clip0_2321_549)">
        <path d="M146.83 12.0415V9.04456H147.856C148.093 9.04456 148.288 9.08454 148.44 9.16454C148.593 9.24356 148.705 9.35233 148.778 9.49086C148.852 9.6294 148.888 9.78695 148.888 9.96352C148.888 10.1401 148.852 10.2967 148.778 10.4333C148.705 10.5698 148.593 10.6771 148.442 10.7552C148.291 10.8323 148.097 10.8708 147.862 10.8708H147.032V10.543H147.85C148.012 10.543 148.143 10.5196 148.242 10.4728C148.342 10.4259 148.414 10.3596 148.458 10.2737C148.504 10.1869 148.526 10.0835 148.526 9.96352C148.526 9.84352 148.504 9.73865 148.458 9.6489C148.413 9.55916 148.34 9.48989 148.24 9.44111C148.14 9.39137 148.008 9.36648 147.844 9.36648H147.198V12.0415H146.83ZM148.26 10.6952L149.007 12.0415H148.58L147.844 10.6952H148.26Z" fill="white"/>
        <path d="M147.677 13.2063C149.133 13.2063 150.314 12.0409 150.314 10.6032C150.314 9.16548 149.133 8 147.677 8C146.22 8 145.039 9.16548 145.039 10.6032C145.039 12.0409 146.22 13.2063 147.677 13.2063Z" stroke="white" stroke-width="0.5" stroke-miterlimit="10"/>
        <path d="M7.02914 27.2449C7.76905 27.2449 8.50896 27.2449 9.24887 27.2449C9.24887 27.3242 9.24887 27.3879 9.24887 27.4673C9.24887 28.3403 9.24887 29.2131 9.24887 30.102C9.24887 30.5465 9.55449 30.8639 10.021 30.8639C12.675 30.8639 15.329 30.8641 17.9669 30.8482C18.4495 30.8482 18.7551 30.5306 18.7551 30.0703C18.7551 29.1814 18.739 28.3084 18.7712 27.4195C18.8194 25.7528 20.1706 24.2609 21.8273 24.0228C22.3099 23.9593 22.8085 23.9593 23.3072 23.9434C23.854 23.9276 24.417 23.9434 24.9639 23.9434C25.4465 23.9434 25.7521 23.6419 25.7521 23.1498C25.7521 20.5625 25.7521 17.9752 25.7521 15.3719C25.7521 14.8799 25.4626 14.5783 24.98 14.5465C24.9317 14.5465 24.8674 14.5465 24.8192 14.5465C21.393 14.5465 17.983 14.5465 14.5569 14.5465C14.1387 14.5465 13.7366 14.5783 13.3345 14.7529C12.7715 14.991 12.3694 15.3878 12.2889 16.0226C12.2085 16.6417 12.498 17.1338 12.9806 17.4988C13.431 17.848 13.9779 17.9592 14.5408 18.0544C15.8276 18.2766 17.034 18.7212 17.9991 19.6101C18.8034 20.3561 19.2698 21.2449 19.2216 22.3719C19.1733 23.3877 18.6747 24.1974 17.9026 24.8482C17.0179 25.5784 15.9724 25.9274 14.8625 26.0703C14.3639 26.1338 13.8653 26.1496 13.3666 26.1496C9.60274 26.1496 5.83885 26.1496 2.07496 26.1496C0.884673 26.1496 0 25.2766 0 24.1179C0 20.8798 0 17.6417 0 14.4037C0 13.2291 0.916845 12.3561 2.12322 12.3719C3.26525 12.3878 4.40729 12.3878 5.53324 12.3719C6.33749 12.3719 6.98089 11.6894 6.98089 10.8957C6.98089 9.73701 6.98089 8.57828 6.98089 7.40368C6.99697 6.37193 7.84948 5.51479 8.895 5.46717C8.95934 5.46717 9.03977 5.45129 9.10411 5.45129C12.3854 5.45129 15.6668 5.45129 18.9481 5.45129C19.9937 5.45129 20.9105 6.29256 20.9266 7.32431C20.9588 8.61003 20.9266 9.87987 20.9266 11.1656C20.9266 11.1973 20.9266 11.2132 20.9105 11.2608C20.1867 11.2608 19.4628 11.2608 18.7069 11.2608C18.7069 11.1815 18.6908 11.1021 18.6908 11.0386C18.6908 10.1973 18.6908 9.35606 18.6908 8.49891C18.6908 7.94336 18.4012 7.65764 17.8383 7.65764C15.2647 7.65764 12.675 7.65764 10.1014 7.65764C10.0049 7.65764 9.92444 7.65764 9.82793 7.67352C9.44189 7.73701 9.18453 8.02272 9.18453 8.40368C9.18453 9.27669 9.20062 10.1497 9.16845 11.0069C9.12019 12.8481 7.65646 14.3878 5.7906 14.5307C4.87375 14.5942 3.95691 14.5624 3.05615 14.5465C2.5736 14.5307 2.20364 14.8481 2.20364 15.3243C2.20364 17.9433 2.20364 20.5623 2.20364 23.1973C2.20364 23.6417 2.50926 23.9434 2.95964 23.9434C6.53051 23.9434 10.0853 23.9434 13.6562 23.9434C14.0905 23.9434 14.5087 23.8482 14.8786 23.626C15.8276 23.0546 15.9402 21.8639 15.1038 21.1338C14.6856 20.7687 14.1709 20.5941 13.624 20.4988C12.498 20.3242 11.4364 19.9911 10.4874 19.3403C9.69925 18.8006 9.07194 18.102 8.81458 17.1655C8.47679 15.9433 8.81458 14.8799 9.68317 13.9751C10.4713 13.1497 11.4847 12.7053 12.5946 12.5148C13.238 12.4037 13.8814 12.3402 14.5408 12.3402C18.2565 12.3243 21.956 12.3402 25.6717 12.3243C26.2668 12.3243 26.7654 12.483 27.2158 12.8322C27.6984 13.2132 27.9396 13.7211 27.9396 14.3243C27.9396 17.6101 27.9396 20.8798 27.9396 24.1655C27.9396 25.2607 27.0228 26.1496 25.9129 26.1496C24.787 26.1496 23.6449 26.1496 22.519 26.1496C21.7469 26.1496 21.1518 26.6099 20.9748 27.2925C20.9427 27.4353 20.9266 27.5942 20.9266 27.753C20.9266 28.8323 20.9266 29.9276 20.9266 31.0069C20.9266 32.1657 20.0419 33.0385 18.8677 33.0385C15.9724 33.0385 13.0771 33.0544 10.1818 33.0544C9.68317 33.0544 9.20062 33.0704 8.70198 33.0228C7.76905 32.9434 6.9648 32.0863 6.94872 31.1657C6.93263 29.8799 6.94872 28.6099 6.94872 27.3242C7.01306 27.3084 7.02914 27.2766 7.02914 27.2449Z" fill="white"/>
        <path d="M40.409 29.6049C39.2391 29.6049 38.1862 29.4006 37.2504 28.9921C36.3324 28.5659 35.6036 27.9975 35.0636 27.287C34.5237 26.5589 34.2357 25.7508 34.1997 24.8627H37.3853C37.4394 25.4843 37.7363 26.0082 38.2763 26.4346C38.8343 26.843 39.5272 27.0473 40.3551 27.0473C41.219 27.0473 41.885 26.8875 42.3529 26.5678C42.8388 26.2303 43.0818 25.804 43.0818 25.2889C43.0818 24.7384 42.8118 24.3298 42.2718 24.0635C41.7498 23.797 40.9129 23.504 39.7611 23.1843C38.6453 22.8824 37.7363 22.5892 37.0344 22.3051C36.3324 22.0209 35.7205 21.5857 35.1986 20.9997C34.6946 20.4135 34.4428 19.6409 34.4428 18.6819C34.4428 17.9005 34.6766 17.19 35.1445 16.5506C35.6126 15.8933 36.2785 15.3783 37.1425 15.0054C38.0242 14.6324 39.0321 14.4459 40.1661 14.4459C41.8579 14.4459 43.2168 14.8721 44.2427 15.7247C45.2866 16.5595 45.8444 17.7051 45.9165 19.1614H42.8388C42.7848 18.5043 42.5148 17.9803 42.0289 17.5895C41.543 17.1989 40.8861 17.0035 40.058 17.0035C39.2481 17.0035 38.6273 17.1544 38.1952 17.4563C37.7633 17.7582 37.5473 18.1579 37.5473 18.6552C37.5473 19.046 37.6913 19.3746 37.9794 19.6409C38.2673 19.9075 38.6183 20.1205 39.0321 20.2803C39.4462 20.4224 40.058 20.6089 40.8681 20.8398C41.9479 21.124 42.8298 21.417 43.5137 21.719C44.2157 22.0032 44.8185 22.4294 45.3225 22.9978C45.8264 23.5662 46.0875 24.3209 46.1055 25.2624C46.1055 26.0971 45.8715 26.843 45.4036 27.5002C44.9356 28.1573 44.2697 28.6724 43.4058 29.0454C42.5599 29.4184 41.561 29.6049 40.409 29.6049ZM50.9968 12.7408C50.4388 12.7408 49.9709 12.5543 49.5929 12.1814C49.2151 11.8084 49.0261 11.3466 49.0261 10.796C49.0261 10.2454 49.2151 9.78364 49.5929 9.41066C49.9709 9.03769 50.4388 8.8512 50.9968 8.8512C51.5368 8.8512 51.9957 9.03769 52.3737 9.41066C52.7517 9.78364 52.9407 10.2454 52.9407 10.796C52.9407 11.3466 52.7517 11.8084 52.3737 12.1814C51.9957 12.5543 51.5368 12.7408 50.9968 12.7408ZM52.5086 14.6857V29.3651H49.4309V14.6857H52.5086ZM60.14 17.1633V25.2889C60.14 25.8395 60.2659 26.2392 60.518 26.4878C60.7879 26.7187 61.2379 26.8341 61.8678 26.8341H63.7577V29.3651H61.3279C59.942 29.3651 58.8802 29.0454 58.1422 28.406C57.4042 27.7667 57.0353 26.7276 57.0353 25.2889V17.1633H55.2805V14.6857H57.0353V11.0358H60.14V14.6857H63.7577V17.1633H60.14ZM80.2277 21.6657C80.2277 22.2163 80.1919 22.7136 80.1198 23.1576H68.754C68.8441 24.3298 69.2849 25.2711 70.0768 25.9816C70.8688 26.6921 71.8407 27.0473 72.9925 27.0473C74.6483 27.0473 75.8182 26.3635 76.5021 24.9959H79.8229C79.3728 26.3457 78.5539 27.4557 77.3661 28.326C76.1962 29.1786 74.7384 29.6049 72.9925 29.6049C71.5706 29.6049 70.2928 29.294 69.159 28.6724C68.043 28.033 67.1611 27.1449 66.5132 26.0082C65.8833 24.8538 65.5683 23.5217 65.5683 22.0121C65.5683 20.5024 65.8743 19.1792 66.4862 18.0425C67.1162 16.8881 67.9891 16 69.105 15.3783C70.2388 14.7567 71.5348 14.4459 72.9925 14.4459C74.3964 14.4459 75.6472 14.7478 76.7452 15.3517C77.843 15.9555 78.6979 16.8081 79.3099 17.9092C79.9218 18.9927 80.2277 20.2448 80.2277 21.6657ZM77.0151 20.7067C76.9971 19.5876 76.5922 18.6908 75.8003 18.0159C75.0083 17.3409 74.0274 17.0035 72.8576 17.0035C71.7957 17.0035 70.8869 17.3409 70.1309 18.0159C69.3749 18.673 68.925 19.57 68.781 20.7067H77.0151ZM82.2306 22.0121C82.2306 20.5024 82.5366 19.1792 83.1486 18.0425C83.7785 16.8881 84.6424 16 85.7402 15.3783C86.8382 14.7567 88.0981 14.4459 89.5199 14.4459C91.3198 14.4459 92.8046 14.8721 93.9744 15.7247C95.1623 16.5595 95.9632 17.7582 96.3772 19.3213H93.0565C92.7866 18.593 92.3545 18.0248 91.7607 17.6162C91.1667 17.2078 90.4198 17.0035 89.5199 17.0035C88.2601 17.0035 87.2522 17.4475 86.4962 18.3355C85.7582 19.2059 85.3894 20.4313 85.3894 22.0121C85.3894 23.5927 85.7582 24.8271 86.4962 25.7152C87.2522 26.6033 88.2601 27.0473 89.5199 27.0473C91.3018 27.0473 92.4806 26.2746 93.0565 24.7295H96.3772C95.9452 26.2214 95.1353 27.4114 93.9474 28.2994C92.7596 29.1697 91.2838 29.6049 89.5199 29.6049C88.0981 29.6049 86.8382 29.294 85.7402 28.6724C84.6424 28.033 83.7785 27.1449 83.1486 26.0082C82.5366 24.8538 82.2306 23.5217 82.2306 22.0121ZM98.4184 21.9587C98.4184 20.4846 98.7243 19.1792 99.3364 18.0425C99.9663 16.9057 100.812 16.0267 101.874 15.405C102.954 14.7656 104.142 14.4459 105.438 14.4459C106.608 14.4459 107.625 14.6768 108.488 15.1386C109.37 15.5826 110.072 16.1421 110.594 16.817V14.6857H113.699V29.3651H110.594V27.1805C110.072 27.8732 109.361 28.4503 108.461 28.9122C107.561 29.374 106.536 29.6049 105.384 29.6049C104.106 29.6049 102.936 29.2851 101.874 28.6457C100.812 27.9886 99.9663 27.0828 99.3364 25.9284C98.7243 24.7562 98.4184 23.4328 98.4184 21.9587ZM110.594 22.0121C110.594 20.9997 110.378 20.1205 109.946 19.3746C109.532 18.6286 108.983 18.0603 108.299 17.6695C107.616 17.2787 106.878 17.0833 106.086 17.0833C105.294 17.0833 104.556 17.2787 103.872 17.6695C103.188 18.0425 102.63 18.6019 102.198 19.3479C101.784 20.0762 101.577 20.9463 101.577 21.9587C101.577 22.9711 101.784 23.8592 102.198 24.6228C102.63 25.3867 103.188 25.9727 103.872 26.3813C104.574 26.7719 105.312 26.9673 106.086 26.9673C106.878 26.9673 107.616 26.7719 108.299 26.3813C108.983 25.9905 109.532 25.4222 109.946 24.6762C110.378 23.9125 110.594 23.0244 110.594 22.0121ZM120.819 16.817C121.269 16.0709 121.863 15.4938 122.601 15.0853C123.357 14.659 124.248 14.4459 125.273 14.4459V17.5895H124.491C123.285 17.5895 122.367 17.8916 121.737 18.4954C121.125 19.0992 120.819 20.1471 120.819 21.639V29.3651H117.741V14.6857H120.819V16.817ZM141.736 21.6657C141.736 22.2163 141.7 22.7136 141.628 23.1576H130.262C130.352 24.3298 130.793 25.2711 131.585 25.9816C132.377 26.6921 133.349 27.0473 134.501 27.0473C136.157 27.0473 137.327 26.3635 138.011 24.9959H141.331C140.881 26.3457 140.062 27.4557 138.874 28.326C137.704 29.1786 136.247 29.6049 134.501 29.6049C133.079 29.6049 131.801 29.294 130.667 28.6724C129.551 28.033 128.669 27.1449 128.021 26.0082C127.392 24.8538 127.077 23.5217 127.077 22.0121C127.077 20.5024 127.383 19.1792 127.995 18.0425C128.624 16.8881 129.497 16 130.613 15.3783C131.747 14.7567 133.043 14.4459 134.501 14.4459C135.905 14.4459 137.156 14.7478 138.253 15.3517C139.351 15.9555 140.206 16.8081 140.818 17.9092C141.43 18.9927 141.736 20.2448 141.736 21.6657ZM138.523 20.7067C138.505 19.5876 138.1 18.6908 137.309 18.0159C136.517 17.3409 135.536 17.0035 134.366 17.0035C133.304 17.0035 132.395 17.3409 131.639 18.0159C130.883 18.673 130.433 19.57 130.289 20.7067H138.523Z" fill="white"/>
    </g>
    <defs>
        <clipPath id="clip0_2321_549">
            <rect width="150.556" height="40" fill="white"/>
        </clipPath>
    </defs>
</svg>
